<svg width="187" height="187" fill="none" xmlns="http://www.w3.org/2000/svg"><circle cx="93.5" cy="93.5" r="93.5" fill="#1B1817"/><path fill-rule="evenodd" clip-rule="evenodd" d="M93.5 14a80.5 80.5 0 00-25.4 157c4 .7 5.5-1.8 5.5-4l-.1-15c-22.4 5-27.2-9.4-27.2-9.4-3.6-9.4-9-11.8-9-11.8-7.2-5 .6-5 .6-5 8.1.6 12.4 8.4 12.4 8.4 7.2 12.3 18.8 8.7 23.4 6.7.7-5.2 2.8-8.8 5.1-10.8-17.9-2-36.7-9-36.7-39.8 0-8.8 3.2-16 8.3-21.6a29 29 0 01.8-21.3s6.8-2.2 22.2 8.2a77.2 77.2 0 0140.3 0c15.4-10.4 22.1-8.2 22.1-8.2 4.4 11 1.6 19.3.8 21.3a31.1 31.1 0 018.3 21.6c0 31-18.9 37.7-36.8 39.7 3 2.5 5.5 7.4 5.5 15l-.1 22c0 2.2 1.4 4.7 5.5 4A80.5 80.5 0 0093.5 14" fill="#fff"/><path d="M43.5 129.6c-.2.4-.8.5-1.4.2-.6-.2-.9-.8-.7-1.2.2-.4.8-.5 1.4-.2.6.3.9.8.7 1.2M46.8 133.2c-.4.4-1.2.2-1.7-.3-.5-.6-.6-1.3-.2-1.7.4-.4 1.1-.2 1.6.4.6.5.7 1.3.3 1.6zM50 137.9c-.6.3-1.4 0-1.9-.7s-.5-1.6 0-2c.5-.3 1.3 0 1.8.7.5.8.5 1.6 0 2M54.3 142.4c-.5.4-1.4.3-2-.3-.8-.7-1-1.6-.5-2.1.4-.5 1.3-.4 2 .3.7.6 1 1.6.5 2zM60.3 145c-.2.6-1.1.9-2 .6-1-.3-1.5-1-1.4-1.6.2-.7 1.1-1 2-.7 1 .3 1.6 1 1.4 1.7M66.9 145.4c0 .7-.8 1.3-1.7 1.3-1 0-1.8-.5-1.8-1.2s.8-1.2 1.7-1.2c1 0 1.8.5 1.8 1.1zM73 144.4c.1.6-.5 1.3-1.5 1.5-1 .2-1.8-.2-2-.9 0-.6.6-1.3 1.6-1.5 1-.1 1.8.2 1.9.9z" fill="#fff"/></svg>