<svg width="150" height="150" xmlns="http://www.w3.org/2000/svg" class="css-1qw4ra5 e1xnikn40"><path fill="none" d="M-1-1h152v152H-1z"/><g><rect rx="24" height="150" width="150" stroke-opacity="null" stroke-width="null" stroke="null" fill="#f44725"/><path fill="#fff" d="M92.54 132.395a1.175 1.175 0 01-.592 1.02 1.188 1.188 0 01-1.181-.002l-5.399-3.127-30.54-17.64a1.42 1.42 0 01-.709-1.223v-.046a.15.15 0 010-.036V71.717a1.328 1.328 0 00-1.322-1.275H25.635c-.352 0-.69-.14-.94-.388a1.321 1.321 0 01-.388-.936V28.752c0-.351.14-.688.389-.936a1.33 1.33 0 01.939-.388h96.73a1.325 1.325 0 011.328 1.324v40.354c0 .351-.14.688-.389.936a1.33 1.33 0 01-.94.388H110.07c-.343 0-.673-.137-.916-.38a1.294 1.294 0 01-.381-.913V49.265a1.349 1.349 0 00-1.129-1.332L73.196 42.05a.77.77 0 00-.847.503.762.762 0 00.35.92l19.092 10.43a1.476 1.476 0 01.767 1.29v15.25l-.018 61.952z"/></g></svg>